<?xml version="1.0" encoding="utf-8"?>
<!-- Generator: Adobe Illustrator 19.2.1, SVG Export Plug-In . SVG Version: 6.00 Build 0)  -->
<svg version="1.1" id="Слой_1" xmlns="http://www.w3.org/2000/svg" xmlns:xlink="http://www.w3.org/1999/xlink" x="0px" y="0px"
	 viewBox="0 0 66 66.7" style="enable-background:new 0 0 66 66.7;" xml:space="preserve">
<style type="text/css">
	.st0{fill:#EA06A4;}
</style>
<path class="st0" d="M0,26v38.7c0,1.1,0.9,2,2,2h25.2h11.6H64c1.1,0,2-0.9,2-2V26c0-1.1-0.9-2-2-2h-6.7c2.6-2.2,4.3-5.2,4.7-8.5
	c0.5-3.6-0.4-7.2-2.6-10.1c-4.5-6-13.1-7.1-19.1-2.6c-3.2,2.4-5.6,8.7-7.1,14c-1.5-5.3-3.9-11.6-7.1-14C23.2,0.6,19.6-0.3,16,0.2
	S9.2,2.6,7,5.5S3.9,12,4.4,15.6C4.9,19,6.5,22,9.1,24.1h-7C0.9,24,0,24.9,0,26z M29.2,62.8V28h7.6v34.7L29.2,62.8L29.2,62.8z
	 M62,62.8H40.8V28H62V62.8z M42.7,6C46.9,2.8,53,3.6,56.2,7.8c1.6,2,2.2,4.6,1.9,7.1c-0.3,2.5-1.7,4.8-3.7,6.4
	c-2.9,2.2-12.2,2.5-18.7,2.2C37,17.1,39.8,8.2,42.7,6z M8.3,15C8,12.5,8.6,9.9,10.2,7.9s3.8-3.4,6.4-3.7c0.4-0.1,0.9-0.1,1.3-0.1
	c2.1,0,4.1,0.7,5.8,2c2.9,2.2,5.7,11.1,7.1,17.5c-6.5,0.3-15.8,0.1-18.7-2.2C10,19.8,8.6,17.5,8.3,15z M4,28h21.2v34.7H4V28z"/>
</svg>
